<?xml version="1.0" encoding="UTF-8"?>
<svg width="100px" height="50px" viewBox="0 0 100 50" version="1.1" xmlns="http://www.w3.org/2000/svg" xmlns:xlink="http://www.w3.org/1999/xlink">
    <title>logo</title>
    <g id="Page-1" stroke="none" stroke-width="1" fill="none" fill-rule="evenodd">
        <g id="logo" fill="#FFFFFF" fill-rule="nonzero">
            <path d="M36.9590643,0.887922443 C35.9565739,1.73369895 35.1233188,2.75981719 34.502924,3.91255484 C33.8596491,5.19220701 33.3918128,5.65753508 33.3333333,5.075875 C33.3333333,3.50539279 30.994152,3.15639675 21.3450292,3.15639675 C14.502924,3.15639675 11.9298245,3.38906077 9.59064327,4.20338488 C4.44444444,5.94836511 2.16374269,9.55465759 3.50877193,13.6262782 C4.15204678,15.4875903 4.38596491,15.7202544 6.02339182,15.5457564 C7.83625731,15.3712584 7.89473684,15.3130924 7.71929825,12.637456 C7.54385965,10.3108157 7.71929825,9.78732162 8.88888889,9.08932953 C9.91871668,8.5340484 11.0207606,8.12299755 12.1637427,7.86784337 C14.0350877,7.55956353 14.0350877,7.55956353 14.0350877,10.0199857 C14.0121765,11.5573619 13.8949999,13.0919167 13.6842106,14.6151002 C13.3918128,16.4182465 13.0409357,16.8254085 11.9883041,16.8254085 C9.06432749,16.8254085 8.42105264,20.489867 11.2865497,20.780697 C13.0409357,21.0133611 13.2163743,21.7113532 12.2222223,25.1431476 C10.9356725,29.9127603 7.13450292,31.0760804 3.74269006,27.818784 C1.6374269,25.8411398 0,25.8411398 0,27.87695 C0,31.3087444 4.26900585,33.9843808 8.94736842,33.5190527 C13.625731,33.0537246 16.6081872,29.8545943 17.4269006,23.9798275 L17.8362573,21.1878591 L21.871345,20.8970291 C26.0818714,20.6061991 27.4853801,19.6755429 26.7251462,17.7560647 C26.4327485,17.0580726 25.5555556,16.8254085 22.5146199,16.8254085 L18.7134503,16.8254085 L18.7134503,14.8477643 C18.7134503,13.8007761 18.8888889,11.7067999 19.0643275,10.1944837 L19.4736842,7.4025153 L26.1403509,7.63517934 C30.9356725,7.75151135 32.6900585,7.98417538 32.5146199,8.50766945 C31.7543859,10.4271477 30.994152,14.1497722 30.4093567,18.6867208 C28.7719298,30.7852504 33.8011695,37.0671792 40.9356725,31.8904045 L43.3918128,30.0872583 L45.1461989,31.7740725 C46.6666667,33.2282227 47.3099415,33.4027208 50.4678362,33.4027208 C53.3333333,33.4027208 54.502924,33.1118907 56.0233918,32.0649026 L57.9532164,30.6689184 L59.3567251,32.1812345 C61.0526316,33.9843808 63.2748537,34.1588789 65.7894736,32.6465626 C67.4853801,31.5995745 67.6023392,31.5995745 69.2982456,32.6465626 C72.4561403,34.5078749 75.7894736,33.9262148 79.0643275,30.9597484 C80.5263158,29.5637642 80.5847953,29.5637642 80.9356725,30.6689184 C82.0467836,34.1588789 85.6725147,34.4497089 87.7777777,31.1924125 L89.005848,29.3311002 L88.6549708,31.0760804 C88.4210526,32.1230686 87.0175439,33.9262148 85.0877193,35.729361 C80.8187134,39.6264836 78.9473684,42.59295 78.9473684,45.3674685 C78.9473684,49.3809231 82.631579,51.3004013 85.9064327,49.031927 C87.6608188,47.7522749 90.3508772,42.1101721 91.2280702,37.5732235 C91.9883041,34.025097 92.0467836,33.908765 95.9649123,31.1749626 C98.5964913,29.3718165 100,28.0339983 100,27.2778401 C100,25.3583619 98.7719298,25.3583619 96.0818714,27.2196741 C94.6198831,28.2666623 93.3333333,28.9646543 93.1578948,28.7901564 C92.9824561,28.6156583 93.2748538,26.11452 93.8011695,23.1480536 C94.3274853,20.1815872 94.5614035,17.5641168 94.3859649,17.2732868 C93.3918128,15.7028047 90.0584795,18.0294449 90.0584795,20.2979192 C90.0584795,21.6939034 86.6666667,28.4411603 85.9649123,28.4411603 C84.7953216,28.4411603 84.7368422,26.9288441 85.6725147,22.5663935 C86.8421052,16.9824568 86.7836257,16.8079587 85.0877193,16.8079587 C83.3918128,16.8079587 82.1637427,18.4947729 81.3450292,22.1592315 C80.4678363,25.9981879 76.6081872,29.6626465 73.6842106,29.4881484 C71.871345,29.3136504 71.5789474,29.0809864 71.1111111,27.2778401 C70.7585655,25.8573162 70.9029443,24.3597239 71.5204678,23.0317216 C72.4561403,20.8795793 73.6842106,20.1234212 73.6842106,21.7520694 C73.6842106,22.9735556 75.2631578,23.4970497 76.3157894,22.6245595 C77.368421,21.7520694 77.4853801,18.4947729 76.4912281,17.5059508 C75.497076,16.5171287 72.865497,16.6916267 71.1111111,18.0294449 L69.5906433,19.1927651 L68.0701755,18.0294449 C64.3274853,15.1211445 59.5321638,18.0876109 61.1695907,22.2755635 C61.4550881,22.8710443 62.0799383,23.2300147 62.7411867,23.1784301 C63.4024352,23.1268456 63.9633784,22.6753704 64.1520468,22.0428994 C64.6198831,20.4142512 65.9064327,20.5887492 66.3157894,22.3918954 C67.0175439,25.0093658 65.2631578,29.6044804 63.625731,29.6044804 C62.6900585,29.6044804 62.5146199,29.2554844 62.6900585,27.7431682 C62.865497,25.8818559 62.8070175,25.82369 60.4093567,25.7073579 C59.005848,25.7073579 57.8947368,25.8818559 57.8947368,26.11452 C57.8947368,26.347184 56.7251462,27.3360061 55.3216374,28.1503302 C53.4502924,29.2554844 52.0467836,29.6044804 50.5263158,29.4881484 C47.8947368,29.2554844 47.3099415,28.1503302 49.4736842,27.6268361 C53.5672515,26.5798481 56.1988305,22.6827256 55.0292398,19.5417611 C53.2748537,15.0629785 46.2573099,16.3426307 43.8596491,21.6357374 C43.3035535,22.6962879 42.9093657,23.833304 42.6900585,25.0093658 C42.6900585,25.4746939 41.8128655,26.6961801 40.7602339,27.7431682 C38.4795322,29.8953104 36.0233918,30.2443066 35.0877193,28.4411603 C34.5614035,27.4523382 34.7953216,26.812512 36.1403509,24.7767018 C42.9239766,15.0222623 45.3801169,3.15639675 41.2865497,0.422594382 C40.2339182,-0.27539771 38.3625731,-0.100899688 36.9590643,0.887922443 Z M39.7660818,6.93718725 C39.7660818,10.0781517 38.128655,15.4875903 36.0818714,19.3847129 C34.8538011,21.7113532 34.7953216,21.7113532 34.6198831,20.199037 C34.3859649,18.1632267 36.0233918,9.20566154 37.2514619,6.29736116 C38.5380117,2.98189871 39.7660818,3.33089477 39.7660818,6.93718725 Z M51.3450292,21.8858512 C51.4619883,22.8165074 50.994152,23.5144994 49.5906433,24.3869895 C47.0175439,25.8993058 46.6666667,25.8411398 47.134503,23.9216615 C47.9532164,20.6061991 50.9356725,19.0938828 51.3450292,21.8858512 L51.3450292,21.8858512 Z M85.8479532,42.825614 C85.0292398,44.8614243 84.0935673,46.2574084 83.4502924,46.3737404 C81.5789474,46.7227365 82.2222223,43.4654401 84.6198831,40.3244757 C87.3099415,36.8345152 87.8362573,37.8815034 85.8479532,42.825614 Z" id="Shape"></path>
        </g>
    </g>
</svg>