<?xml version="1.0" encoding="UTF-8"?>
<svg width="178px" height="89px" viewBox="0 0 178 89" version="1.1" xmlns="http://www.w3.org/2000/svg" xmlns:xlink="http://www.w3.org/1999/xlink">
    <title>Shape</title>
    <defs>
        <radialGradient cx="51.9275222%" cy="39.2424508%" fx="51.9275222%" fy="39.2424508%" r="140.459679%" gradientTransform="translate(0.519275,0.392425),scale(0.500000,1.000000),rotate(165.967520),scale(1.000000,0.626183),translate(-0.519275,-0.392425)" id="radialGradient-1">
            <stop stop-color="#FF00B0" stop-opacity="0.600879589" offset="0%"></stop>
            <stop stop-color="#DE0098" stop-opacity="0.5877344" offset="0%"></stop>
            <stop stop-color="#070000" stop-opacity="0.502815986" offset="100%"></stop>
            <stop stop-color="#000000" stop-opacity="0.436325393" offset="100%"></stop>
        </radialGradient>
        <path d="M65.7871345,1.58050195 C64.0027015,3.08598414 62.5195074,4.9124746 61.4152047,6.96434761 C60.2701754,9.24212848 59.4374269,10.0704124 59.3333333,9.0350575 C59.3333333,6.23959917 55.1695906,5.61838621 37.994152,5.61838621 C25.8152047,5.61838621 21.2350877,6.03252817 17.071345,7.4820251 C7.91111111,10.5880899 3.85146199,17.0072905 6.24561404,24.2547752 C7.39064328,27.5679108 7.80701754,27.9820529 10.7216374,27.6714463 C13.948538,27.36084 14.0526316,27.2573044 13.7403509,22.4946717 C13.4280702,18.3532519 13.7403509,17.4214325 15.8222222,16.1790066 C17.6553157,15.1906061 19.6169539,14.4589356 21.6514621,14.0047612 C24.9824562,13.4560231 24.9824562,13.4560231 24.9824562,17.8355745 C24.9416741,20.5721042 24.7330998,23.3036117 24.3578948,26.0148784 C23.8374269,29.2244787 23.2128655,29.9492272 21.3391813,29.9492272 C16.1345029,29.9492272 14.9894737,36.4719633 20.0900585,36.9896407 C23.2128655,37.4037828 23.5251463,38.6462087 21.7555556,44.7548027 C19.4654971,53.2447134 12.6994152,55.3154232 6.6619883,49.5174355 C2.91461988,45.9972288 0,45.9972288 0,49.620971 C0,55.7295651 7.59883042,60.4921978 15.9263158,59.6639138 C24.2538012,58.8356299 29.5625731,53.1411779 31.019883,42.6840929 L31.7485379,37.7143892 L38.9309941,37.1967118 C46.425731,36.6790344 48.9239766,35.0224664 47.5707603,31.6057951 C47.0502924,30.3633692 45.4888889,29.9492272 40.0760234,29.9492272 L33.3099416,29.9492272 L33.3099416,26.4290205 C33.3099416,24.5653815 33.6222222,20.8381038 33.9345029,18.1461809 L34.6631579,13.1764772 L46.5298246,13.5906192 C55.065497,13.7976902 58.1883042,14.2118322 57.8760234,15.1436516 C56.5228069,18.5603229 55.1695906,25.1865944 54.1286549,33.262363 C51.214035,54.7977458 60.1660818,65.979579 72.8654971,56.7649201 L77.2374269,53.5553197 L80.360234,56.557849 C83.0666667,59.1462364 84.2116958,59.456843 89.8327485,59.456843 C94.9333333,59.456843 97.0152047,58.9391654 99.7216374,57.0755266 L103.156725,54.5906748 L105.654971,57.2825975 C108.673684,60.4921978 112.62924,60.8028044 117.105263,58.1108814 C120.123977,56.2472427 120.332164,56.2472427 123.350877,58.1108814 C128.97193,61.4240173 134.905263,60.3886623 140.734503,55.1083522 C143.336842,52.6235003 143.440936,52.6235003 144.065497,54.5906748 C146.043275,60.8028044 152.497076,61.3204818 156.244444,55.5224942 L158.430409,52.2093584 L157.805848,55.3154232 C157.389474,57.1790622 154.891228,60.3886623 151.45614,63.5982626 C143.85731,70.5351409 140.526316,75.815451 140.526316,80.7540939 C140.526316,87.898043 147.084211,91.3147144 152.91345,87.2768301 C156.036257,84.9990493 160.824561,74.9561064 162.385965,66.8803379 C163.739181,60.5646727 163.843275,60.3576017 170.817544,55.4914334 C175.501754,52.2818333 178,49.900517 178,48.5545554 C178,45.1378842 175.814035,45.1378842 171.025731,48.4510199 C168.423392,50.3146588 166.133333,51.5570847 165.821053,51.2464783 C165.508772,50.9358718 166.02924,46.4838456 166.966082,41.2035355 C167.902924,35.9232251 168.319298,31.2641279 168.007017,30.7464505 C166.237427,27.9509923 160.304094,32.0924119 160.304094,36.1302962 C160.304094,38.6151481 154.266667,50.6252654 153.017544,50.6252654 C150.935672,50.6252654 150.831579,47.9333425 152.497076,40.1681805 C154.578947,30.2287731 154.474854,29.9181666 151.45614,29.9181666 C148.437427,29.9181666 146.251462,32.9206958 144.794152,39.443432 C143.232749,46.2767745 136.362573,52.7995107 131.157895,52.4889042 C127.930994,52.1782978 127.410526,51.7641557 126.577778,48.5545554 C125.950247,46.0260229 126.207241,43.3603085 127.306433,40.9964644 C128.97193,37.1656512 131.157895,35.8196898 131.157895,38.7186836 C131.157895,40.8929289 133.968421,41.8247484 135.842105,40.271716 C137.715789,38.7186836 137.923977,32.9206958 136.154386,31.1605924 C134.384795,29.4004892 129.700585,29.7110955 126.577778,32.0924119 L123.871345,34.1631219 L121.164912,32.0924119 C114.502924,26.9156373 105.967251,32.1959474 108.881871,39.6505031 C109.390057,40.7104589 110.50229,41.3494261 111.679312,41.2576056 C112.856335,41.1657851 113.854814,40.3621594 114.190643,39.236361 C115.023392,36.3373672 117.31345,36.6479736 118.042105,39.8575739 C119.291228,44.5166711 116.168421,52.6959752 113.253801,52.6959752 C111.588304,52.6959752 111.276023,52.0747623 111.588304,49.3828393 C111.900585,46.0697035 111.796491,45.9661682 107.528655,45.7590971 C105.030409,45.7590971 103.052632,46.0697035 103.052632,46.4838456 C103.052632,46.8979875 100.97076,48.6580909 98.4725145,50.1075878 C95.1415204,52.0747623 92.6432749,52.6959752 89.9368421,52.4889042 C85.2526315,52.0747623 84.2116958,50.1075878 88.0631579,49.1757683 C95.3497076,47.3121295 100.033918,40.3752515 97.9520468,34.7843348 C94.8292397,26.8121018 82.3380116,29.0898826 78.0701754,38.5116125 C77.0803253,40.3993925 76.3786709,42.4232811 75.9883042,44.5166711 C75.9883042,45.3449551 74.4269005,47.5192006 72.5532163,49.3828393 C68.4935672,53.2136526 64.1216374,53.8348657 62.4561404,50.6252654 C61.5192983,48.8651619 61.9356724,47.7262714 64.3298246,44.1025292 C76.4046783,26.7396268 80.7766081,5.61838621 73.4900584,0.752217999 C71.6163744,-0.490207924 68.2853801,-0.179601444 65.7871345,1.58050195 Z M70.7836256,12.3481933 C70.7836256,17.9391099 67.8690059,27.5679108 64.225731,34.504789 C62.039766,38.6462087 61.9356724,38.6462087 61.6233919,35.9542859 C61.2070175,32.3305435 64.1216374,16.3860775 66.3076022,11.2093029 C68.5976608,5.30777971 70.7836256,5.92899269 70.7836256,12.3481933 Z M91.394152,38.9568152 C91.6023392,40.6133831 90.7695906,41.855809 88.2713451,43.4088414 C83.6912281,46.1007643 83.0666667,45.9972288 83.8994153,42.5805574 C85.3567251,36.6790344 90.6654971,33.9871114 91.394152,38.9568152 L91.394152,38.9568152 Z M152.809357,76.2295929 C151.352047,79.8533353 149.68655,82.3381869 148.54152,82.545258 C145.210526,83.1664709 146.355556,77.3684834 150.623392,71.7775667 C155.411696,65.5654371 156.348538,67.429076 152.809357,76.2295929 Z" id="path-2"></path>
    </defs>
    <g id="Page-1" stroke="none" stroke-width="1" fill="none" fill-rule="evenodd">
        <g id="logo" fill-rule="nonzero">
            <g id="Shape">
                <use fill-opacity="0.8" fill="#5B4DFF" xlink:href="#path-2"></use>
                <use fill="url(#radialGradient-1)" xlink:href="#path-2"></use>
            </g>
        </g>
    </g>
</svg>