<?xml version="1.0" encoding="UTF-8"?>
<svg width="88px" height="44px" viewBox="0 0 88 44" version="1.1" xmlns="http://www.w3.org/2000/svg" xmlns:xlink="http://www.w3.org/1999/xlink">
    <title>logo</title>
    <g id="Page-1" stroke="none" stroke-width="1" fill="none" fill-rule="evenodd">
        <g id="logo" fill="#FFFFFF" fill-rule="nonzero">
            <path d="M32.5239766,0.78137175 C31.641785,1.52565508 30.9085205,2.42863913 30.3625731,3.44304826 C29.7964912,4.56914217 29.3847953,4.97863087 29.3333333,4.46677 C29.3333333,3.08474566 27.2748538,2.77762914 18.7836257,2.77762914 C12.7625731,2.77762914 10.4982456,2.98237348 8.43976608,3.6989787 C3.91111111,5.2345613 1.90409357,8.40809868 3.0877193,11.9911248 C3.65380117,13.6290795 3.85964912,13.8338239 5.3005848,13.6802656 C6.89590643,13.5267074 6.94736842,13.4755213 6.79298246,11.1209613 C6.63859649,9.07351781 6.79298246,8.61284303 7.82222222,7.99860999 C8.72847068,7.50996259 9.69826936,7.14823785 10.7040936,6.92370217 C12.3508772,6.65241591 12.3508772,6.65241591 12.3508772,8.81758738 C12.3307153,10.1704785 12.2275999,11.5208867 12.0421053,12.8612882 C11.7847953,14.4480569 11.4760234,14.8063595 10.5497076,14.8063595 C7.97660819,14.8063595 7.41052632,18.031083 9.93216374,18.2870134 C11.4760234,18.4917578 11.6304094,19.1059908 10.7555556,22.1259699 C9.62339181,26.3232291 6.27836257,27.3469508 3.29356725,24.4805299 C1.44093567,22.740203 0,22.740203 0,24.531716 C0,27.5516951 3.75672515,29.9062551 7.87368421,29.4967664 C11.9906433,29.0872777 14.6152047,26.272043 15.3356725,21.1022482 L15.6959064,18.645316 L19.2467836,18.3893856 C22.9520468,18.1334552 24.1871345,17.3144778 23.5181287,15.6253369 C23.2608187,15.0111039 22.4888889,14.8063595 19.8128655,14.8063595 L16.4678363,14.8063595 L16.4678363,13.0660326 C16.4678363,12.144683 16.6222222,10.3019839 16.7766082,8.97114564 L17.1368421,6.51421347 L23.0035088,6.71895782 C27.2233918,6.82132999 28.7672515,7.02607434 28.6128655,7.48674912 C27.9438596,9.17588998 27.2748538,12.4517995 26.7602339,16.4443143 C25.3192982,27.0910204 29.7450292,32.6191177 36.0233918,28.063556 L38.1847953,26.4767873 L39.728655,27.9611838 C41.0666667,29.240836 41.6327485,29.3943943 44.4116959,29.3943943 C46.9333333,29.3943943 47.9625731,29.1384638 49.3005848,28.2171143 L50.9988304,26.9886482 L52.2339181,28.3194864 C53.7263158,29.9062551 55.6818713,30.0598134 57.8947368,28.7289751 C59.3871345,27.8076256 59.4900585,27.8076256 60.9824561,28.7289751 C63.7614035,30.3669299 66.6947368,29.855069 69.5766082,27.2445786 C70.8631579,26.0161125 70.9146199,26.0161125 71.2233918,26.9886482 C72.2011696,30.0598134 75.3918129,30.3157438 77.2444444,27.449323 L78.3251462,25.8113682 L78.0163743,27.3469508 C77.8105263,28.2683004 76.5754386,29.855069 74.877193,31.4418377 C71.1204678,34.8713056 69.4736842,37.481796 69.4736842,39.9233723 C69.4736842,43.4552123 72.7157895,45.1443532 75.5976608,43.1480958 C77.1415205,42.0220019 79.5087719,37.0569515 80.2807018,33.0644367 C80.9497076,29.9420854 81.0011696,29.8397132 84.4491228,27.4339671 C86.7649123,25.8471985 88,24.6699185 88,24.0044993 C88,22.3153585 86.9192982,22.3153585 84.5520468,23.9533132 C83.2654971,24.8746628 82.1333333,25.4888958 81.9789474,25.3353376 C81.8245614,25.1817793 82.0818713,22.9807776 82.5450292,20.3702872 C83.0081871,17.7597967 83.2140351,15.4564228 83.0596491,15.2004924 C82.1847953,13.8184681 79.251462,15.8659115 79.251462,17.8621689 C79.251462,19.090635 76.2666667,25.0282211 75.6491228,25.0282211 C74.619883,25.0282211 74.5684211,23.6973828 75.3918129,19.8584263 C76.4210526,14.944562 76.3695906,14.7910037 74.877193,14.7910037 C73.3847953,14.7910037 72.3040936,16.2754002 71.5836257,19.5001237 C70.8116959,22.8784054 67.4152047,26.1031289 64.8421053,25.9495706 C63.2467836,25.7960124 62.9894737,25.591268 62.5777778,24.0044993 C62.2675376,22.7544383 62.394591,21.436557 62.9380117,20.267915 C63.7614035,18.3740298 64.8421053,17.7086107 64.8421053,19.1418211 C64.8421053,20.2167289 66.2315789,20.6774037 67.1578947,19.9096124 C68.0842105,19.1418211 68.1871345,16.2754002 67.3122807,15.4052367 C66.4374269,14.5350733 64.1216374,14.6886315 62.5777778,15.8659115 L61.2397661,16.8896333 L59.9017544,15.8659115 C56.6081871,13.3066072 52.3883041,15.9170976 53.8292398,19.6024959 C54.0804775,20.126519 54.6303457,20.4424129 55.2122443,20.3970185 C55.794143,20.3516241 56.287773,19.954326 56.4538012,19.3977515 C56.8654971,17.9645411 57.9976608,18.1180993 58.3578947,19.704868 C58.9754386,22.0082419 57.4315789,26.0519428 55.9906433,26.0519428 C55.1672515,26.0519428 55.0128655,25.7448263 55.1672515,24.413988 C55.3216374,22.7760332 55.2701754,22.7248472 53.1602339,22.622475 C51.9251462,22.622475 50.9473684,22.7760332 50.9473684,22.9807776 C50.9473684,23.1855219 49.9181287,24.0556854 48.6830409,24.7722906 C47.0362573,25.7448263 45.8011696,26.0519428 44.4631579,25.9495706 C42.1473684,25.7448263 41.6327485,24.7722906 43.5368421,24.3116158 C47.1391813,23.3902663 49.4549708,19.9607985 48.425731,17.1967498 C46.8818713,13.2554211 40.7064327,14.381515 38.5964912,19.0394489 C38.1071271,19.9727334 37.7602418,20.9733075 37.5672515,22.0082419 C37.5672515,22.4177306 36.7953216,23.4926385 35.8690058,24.413988 C33.8619883,26.3078732 31.7005848,26.6149898 30.877193,25.0282211 C30.4140351,24.1580576 30.619883,23.5950106 31.8035088,21.8034976 C37.7730994,13.2195908 39.9345029,2.77762914 36.3321637,0.371883056 C35.405848,-0.242349985 33.7590643,-0.088791725 32.5239766,0.78137175 Z M34.994152,6.10472478 C34.994152,8.86877346 33.5532164,13.6290795 31.7520468,17.0585474 C30.671345,19.1059908 30.619883,19.1059908 30.4654971,17.7751526 C30.2596491,15.9836395 31.7005848,8.10098216 32.7812865,5.54167782 C33.9134503,2.62407087 34.994152,2.9311874 34.994152,6.10472478 Z M45.1836257,19.2595491 C45.2865497,20.0785265 44.8748538,20.6927595 43.6397661,21.4605508 C41.3754386,22.7913891 41.0666667,22.740203 41.4783626,21.0510621 C42.1988304,18.1334552 44.8233918,16.8026169 45.1836257,19.2595491 L45.1836257,19.2595491 Z M75.5461988,37.6865403 C74.825731,39.4780534 74.0023392,40.7065194 73.4362573,40.8088916 C71.7894737,41.1160081 72.3555556,38.2495873 74.4654971,35.4855386 C76.8327485,32.4143734 77.2959064,33.335723 75.5461988,37.6865403 Z" id="Shape"></path>
        </g>
    </g>
</svg>