<?xml version="1.0" encoding="UTF-8"?>
<svg width="120px" height="60px" viewBox="0 0 120 60" version="1.1" xmlns="http://www.w3.org/2000/svg" xmlns:xlink="http://www.w3.org/1999/xlink">
    <title>logo</title>
    <g id="Page-1" stroke="none" stroke-width="1" fill="none" fill-rule="evenodd">
        <g id="logo" fill="#FFFFFF" fill-rule="nonzero">
            <path d="M44.3508772,1.06550693 C43.1478886,2.08043874 42.1479825,3.31178063 41.4035088,4.69506581 C40.6315789,6.23064841 40.0701754,6.78904209 40,6.09105 C40,4.20647135 37.1929825,3.7876761 25.614035,3.7876761 C17.4035088,3.7876761 14.3157895,4.06687293 11.5087719,5.04406186 C5.33333333,7.13803813 2.59649123,11.4655891 4.21052632,16.3515338 C4.98245614,18.5851084 5.26315789,18.8643053 7.22807018,18.6549076 C9.40350877,18.4455101 9.47368421,18.3757109 9.2631579,15.1649472 C9.05263158,12.3729788 9.2631579,11.7447859 10.6666667,10.9071954 C11.90246,10.2408581 13.2249128,9.74759707 14.5964913,9.44141205 C16.8421053,9.07147624 16.8421053,9.07147624 16.8421053,12.0239828 C16.8146118,13.8688343 16.6739999,15.7103 16.4210527,17.5381203 C16.0701754,19.7018958 15.6491228,20.1904902 14.3859649,20.1904902 C10.877193,20.1904902 10.1052632,24.5878404 13.5438596,24.9368364 C15.6491228,25.2160334 15.8596492,26.0536238 14.6666667,30.1717771 C13.122807,35.8953124 8.5614035,37.2912965 4.49122807,33.3825408 C1.96491228,31.0093677 0,31.0093677 0,33.45234 C0,37.5704933 5.12280702,40.7812569 10.7368421,40.2228633 C16.3508772,39.6644696 19.9298246,35.8255132 20.9122807,28.775793 L21.4035087,25.4254309 L26.245614,25.0764349 C31.2982456,24.7274389 32.9824561,23.6106515 32.0701755,21.3072776 C31.7192982,20.4696871 30.6666667,20.1904902 27.0175439,20.1904902 L22.4561404,20.1904902 L22.4561404,17.8173172 C22.4561404,16.5609314 22.6666666,14.0481599 22.877193,12.2333804 L23.368421,8.88301837 L31.3684211,9.16221521 C37.122807,9.30181362 39.2280702,9.58101046 39.0175439,10.2092033 C38.1052631,12.5125772 37.1929825,16.9797266 36.491228,22.4240649 C34.5263157,36.9423005 40.5614035,44.480615 49.122807,38.2684854 L52.0701754,36.1047099 L54.1754386,38.128887 C56,39.8738673 56.7719298,40.0832649 60.5614035,40.0832649 C64,40.0832649 65.4035088,39.7342688 67.2280702,38.4778831 L69.5438596,36.8027021 L71.2280701,38.6174814 C73.2631579,40.7812569 75.9298245,40.9906546 78.9473684,39.1758751 C80.9824561,37.9194894 81.122807,37.9194894 83.1578947,39.1758751 C86.9473684,41.4094499 90.9473684,40.7114577 94.877193,37.1516981 C96.631579,35.476517 96.7017544,35.476517 97.122807,36.8027021 C98.4561404,40.9906546 102.807018,41.3396506 105.333333,37.430895 L106.807018,35.1973203 L106.385965,37.2912965 C106.105263,38.5476824 104.421053,40.7114577 102.105263,42.8752332 C96.9824561,47.5517803 94.7368421,51.11154 94.7368421,54.4409622 C94.7368421,59.2571077 99.1578948,61.5604816 103.087719,58.8383124 C105.192983,57.3027298 108.421053,50.5322066 109.473684,45.0878682 C110.385965,40.8301164 110.45614,40.690518 115.157895,37.4099551 C118.31579,35.2461798 120,33.6407979 120,32.7334081 C120,30.4300343 118.526316,30.4300343 115.298246,32.6636089 C113.54386,33.9199947 112,34.7575852 111.789474,34.5481876 C111.578947,34.3387899 111.929825,31.337424 112.561403,27.7776644 C113.192982,24.2179046 113.473684,21.0769402 113.263158,20.7279442 C112.070175,18.8433656 108.070175,21.6353339 108.070175,24.357503 C108.070175,26.0326841 104,34.1293924 103.157895,34.1293924 C101.754386,34.1293924 101.684211,32.3146129 102.807018,27.0796722 C104.210526,20.3789482 104.140351,20.1695505 102.105263,20.1695505 C100.070175,20.1695505 98.5964913,22.1937275 97.614035,26.5910778 C96.5614035,31.1978255 91.9298246,35.5951758 88.4210527,35.3857781 C86.245614,35.1763805 85.8947369,34.8971836 85.3333334,32.7334081 C84.9102785,31.0287795 85.0835332,29.2316686 85.8245614,27.6380659 C86.9473684,25.0554952 88.4210527,24.1481055 88.4210527,26.1024833 C88.4210527,27.5682667 90.3157894,28.1964596 91.5789473,27.1494714 C92.8421052,26.1024833 92.9824561,22.1937275 91.7894737,21.0071409 C90.5964912,19.8205545 87.4385965,20.029952 85.3333334,21.6353339 L83.508772,23.0313181 L81.6842105,21.6353339 C77.1929824,18.1453734 71.4385965,21.7051331 73.4035088,26.7306762 C73.7461057,27.4452532 74.495926,27.8760176 75.289424,27.8141161 C76.0829223,27.7522147 76.7560541,27.2104445 76.9824562,26.4514793 C77.5438597,24.4971015 79.0877193,24.706499 79.5789473,26.8702745 C80.4210526,30.0112389 78.3157894,35.5253765 76.3508772,35.5253765 C75.2280702,35.5253765 75.0175439,35.1065813 75.2280702,33.2918018 C75.4385965,31.0582271 75.368421,30.988428 72.491228,30.8488295 C70.8070175,30.8488295 69.4736842,31.0582271 69.4736842,31.337424 C69.4736842,31.6166208 68.0701755,32.8032074 66.3859649,33.7803963 C64.1403509,35.1065813 62.4561404,35.5253765 60.631579,35.3857781 C57.4736842,35.1065813 56.7719298,33.7803963 59.368421,33.1522034 C64.2807018,31.8958177 67.4385965,27.2192707 66.0350877,23.4501134 C63.9298245,18.0755742 55.5087719,19.6111568 52.6315789,25.9628849 C51.9642642,27.2355455 51.4912388,28.5999648 51.2280702,30.0112389 C51.2280702,30.5696326 50.1754385,32.0354161 48.9122806,33.2918018 C46.1754386,35.8743725 43.2280702,36.2931679 42.1052632,34.1293924 C41.4736842,32.9428058 41.7543859,32.1750144 43.3684211,29.7320422 C51.5087719,18.0267147 54.4561403,3.7876761 49.5438596,0.507113258 C48.2807018,-0.330477252 46.0350877,-0.121079625 44.3508772,1.06550693 Z M47.7192982,8.3246247 C47.7192982,12.093782 45.754386,18.5851084 43.2982456,23.2616555 C41.8245614,26.0536238 41.7543859,26.0536238 41.5438597,24.2388444 C41.2631579,21.795872 43.2280702,11.0467939 44.7017543,7.55683339 C46.245614,3.57827846 47.7192982,3.99707373 47.7192982,8.3246247 Z M61.614035,26.2630215 C61.754386,27.3798089 61.1929825,28.2173993 59.508772,29.2643874 C56.4210526,31.0791669 56,31.0093677 56.5614035,28.7059938 C57.5438596,24.7274389 61.122807,22.9126594 61.614035,26.2630215 L61.614035,26.2630215 Z M103.017544,51.3907368 C102.035088,53.8337092 100.912281,55.5088901 100.140351,55.6484885 C97.8947369,56.0672838 98.6666667,52.1585281 101.54386,48.3893708 C104.77193,44.2014183 105.403509,45.4578041 103.017544,51.3907368 Z" id="Shape"></path>
        </g>
    </g>
</svg>