<svg xmlns="http://www.w3.org/2000/svg" viewBox="0 0 412.74 512"><defs><style>.cls-1{fill:#fff;}.cls-2{fill:#fffdfd;}</style></defs><title>send</title><g id="Layer_2" data-name="Layer 2"><g id="Capa_1" data-name="Capa 1"><path class="cls-1" d="M215.9,0H196.84L0,331H140.16l66.21,66.21L272.59,331H412.74ZM191.37,339.79,152.58,301H52.74L191.37,67.89ZM260.16,301l-38.79,38.79V67.89L360,301Z"/><path class="cls-2" d="M251.37,466v1a15,15,0,0,1-30,0V416h-30v51a45,45,0,0,0,90,0v-1Z"/><path class="cls-1" d="M311.37,396v1a15,15,0,0,1-30,0V366h-30v31a45,45,0,0,0,90,0v-1Z"/><path class="cls-1" d="M130.37,372v76a15,15,0,0,1-30,0v-1h-30v1a45,45,0,0,0,90,0V372Z"/></g></g></svg>