<svg xmlns="http://www.w3.org/2000/svg" viewBox="0 0 171 85.99"><defs><style>.cls-1{fill:#fff;}</style></defs><title>Asset 1</title><g id="Layer_2" data-name="Layer 2"><g id="Layer_1-2" data-name="Layer 1"><path class="cls-1" d="M63.2,1.53A17.89,17.89,0,0,0,59,6.73c-1.1,2.2-1.9,3-2,2,0-2.7-4-3.3-20.5-3.3-11.7,0-16.1.4-20.1,1.8-8.8,3-12.7,9.2-10.4,16.2,1.1,3.2,1.5,3.6,4.3,3.3,3.1-.3,3.2-.4,2.9-5-.3-4,0-4.9,2-6.1a21.74,21.74,0,0,1,5.6-2.1C24,13,24,13,24,17.23a65,65,0,0,1-.6,7.9c-.5,3.1-1.1,3.8-2.9,3.8-5,0-6.1,6.3-1.2,6.8,3,.4,3.3,1.6,1.6,7.5-2.2,8.2-8.7,10.2-14.5,4.6-3.6-3.4-6.4-3.4-6.4.1,0,5.9,7.3,10.5,15.3,9.7s13.1-6.3,14.5-16.4l.7-4.8,6.9-.5c7.2-.5,9.6-2.1,8.3-5.4-.5-1.2-2-1.6-7.2-1.6H32v-3.4c0-1.8.3-5.4.6-8l.7-4.8,11.4.4c8.2.2,11.2.6,10.9,1.5-1.3,3.3-2.6,9.7-3.6,17.5-2.8,20.8,5.8,31.6,18,22.7l4.2-3.1,3,2.9c2.6,2.5,3.7,2.8,9.1,2.8,4.9,0,6.9-.5,9.5-2.3l3.3-2.4,2.4,2.6c2.9,3.1,6.7,3.4,11,.8,2.9-1.8,3.1-1.8,6,0,5.4,3.2,11.1,2.2,16.7-2.9,2.5-2.4,2.6-2.4,3.2-.5,1.9,6,8.1,6.5,11.7.9l2.1-3.2-.6,3c-.4,1.8-2.8,4.9-6.1,8C138.2,68.13,135,73.23,135,78c0,6.9,6.3,10.2,11.9,6.3,3-2.2,7.6-11.9,9.1-19.7,1.3-6.1,1.4-6.3,8.1-11,4.5-3.1,6.9-5.4,6.9-6.7,0-3.3-2.1-3.3-6.7-.1-2.5,1.8-4.7,3-5,2.7s.2-4.6,1.1-9.7,1.3-9.6,1-10.1c-1.7-2.7-7.4,1.3-7.4,5.2,0,2.4-5.8,14-7,14-2,0-2.1-2.6-.5-10.1,2-9.6,1.9-9.9-1-9.9s-5,2.9-6.4,9.2c-1.5,6.6-8.1,12.9-13.1,12.6-3.1-.3-3.6-.7-4.4-3.8a11.07,11.07,0,0,1,.7-7.3c1.6-3.7,3.7-5,3.7-2.2,0,2.1,2.7,3,4.5,1.5s2-7.1.3-8.8-6.2-1.4-9.2.9L119,33l-2.6-2c-6.4-5-14.6.1-11.8,7.3a2.74,2.74,0,0,0,5.1-.4c.8-2.8,3-2.5,3.7.6,1.2,4.5-1.8,12.4-4.6,12.4-1.6,0-1.9-.6-1.6-3.2.3-3.2.2-3.3-3.9-3.5-2.4,0-4.3.3-4.3.7s-2,2.1-4.4,3.5c-3.2,1.9-5.6,2.5-8.2,2.3-4.5-.4-5.5-2.3-1.8-3.2,7-1.8,11.5-8.5,9.5-13.9-3-7.7-15-5.5-19.1,3.6A20.71,20.71,0,0,0,73,43c0,.8-1.5,2.9-3.3,4.7-3.9,3.7-8.1,4.3-9.7,1.2-.9-1.7-.5-2.8,1.8-6.3C73.4,25.83,77.6,5.43,70.6.73,68.8-.47,65.6-.17,63.2,1.53ZM68,11.93c0,5.4-2.8,14.7-6.3,21.4-2.1,4-2.2,4-2.5,1.4-.4-3.5,2.4-18.9,4.5-23.9C65.9,5.13,68,5.73,68,11.93Zm19.8,25.7c.2,1.6-.6,2.8-3,4.3-4.4,2.6-5,2.5-4.2-.8C82,35.43,87.1,32.83,87.8,37.63Zm59,36c-1.4,3.5-3,5.9-4.1,6.1-3.2.6-2.1-5,2-10.4C149.3,63.33,150.2,65.13,146.8,73.63Z"/></g></g></svg>